<svg width="20" height="21" viewBox="0 0 20 21" fill="none" xmlns="http://www.w3.org/2000/svg">
<path d="M17.4328 11.48C17.4728 11.16 17.5028 10.84 17.5028 10.5C17.5028 10.16 17.4728 9.84 17.4328 9.52L19.5428 7.87C19.7328 7.72 19.7828 7.45 19.6628 7.23L17.6628 3.77C17.5728 3.61 17.4028 3.52 17.2228 3.52C17.1628 3.52 17.1028 3.53 17.0528 3.55L14.5628 4.55C14.0428 4.15 13.4828 3.82 12.8728 3.57L12.4928 0.92C12.4628 0.68 12.2528 0.5 12.0028 0.5H8.00277C7.75277 0.5 7.54277 0.68 7.51277 0.92L7.13277 3.57C6.52277 3.82 5.96277 4.16 5.44277 4.55L2.95277 3.55C2.89277 3.53 2.83277 3.52 2.77277 3.52C2.60277 3.52 2.43277 3.61 2.34277 3.77L0.342769 7.23C0.212769 7.45 0.272769 7.72 0.462769 7.87L2.57277 9.52C2.53277 9.84 2.50277 10.17 2.50277 10.5C2.50277 10.83 2.53277 11.16 2.57277 11.48L0.462769 13.13C0.272769 13.28 0.222769 13.55 0.342769 13.77L2.34277 17.23C2.43277 17.39 2.60277 17.48 2.78277 17.48C2.84277 17.48 2.90277 17.47 2.95277 17.45L5.44277 16.45C5.96277 16.85 6.52277 17.18 7.13277 17.43L7.51277 20.08C7.54277 20.32 7.75277 20.5 8.00277 20.5H12.0028C12.2528 20.5 12.4628 20.32 12.4928 20.08L12.8728 17.43C13.4828 17.18 14.0428 16.84 14.5628 16.45L17.0528 17.45C17.1128 17.47 17.1728 17.48 17.2328 17.48C17.4028 17.48 17.5728 17.39 17.6628 17.23L19.6628 13.77C19.7828 13.55 19.7328 13.28 19.5428 13.13L17.4328 11.48ZM15.4528 9.77C15.4928 10.08 15.5028 10.29 15.5028 10.5C15.5028 10.71 15.4828 10.93 15.4528 11.23L15.3128 12.36L16.2028 13.06L17.2828 13.9L16.5828 15.11L15.3128 14.6L14.2728 14.18L13.3728 14.86C12.9428 15.18 12.5328 15.42 12.1228 15.59L11.0628 16.02L10.9028 17.15L10.7028 18.5H9.30277L9.11277 17.15L8.95277 16.02L7.89277 15.59C7.46277 15.41 7.06277 15.18 6.66277 14.88L5.75277 14.18L4.69277 14.61L3.42277 15.12L2.72277 13.91L3.80277 13.07L4.69277 12.37L4.55277 11.24C4.52277 10.93 4.50277 10.7 4.50277 10.5C4.50277 10.3 4.52277 10.07 4.55277 9.77L4.69277 8.64L3.80277 7.94L2.72277 7.1L3.42277 5.89L4.69277 6.4L5.73277 6.82L6.63277 6.14C7.06277 5.82 7.47277 5.58 7.88277 5.41L8.94277 4.98L9.10277 3.85L9.30277 2.5H10.6928L10.8828 3.85L11.0428 4.98L12.1028 5.41C12.5328 5.59 12.9328 5.82 13.3328 6.12L14.2428 6.82L15.3028 6.39L16.5728 5.88L17.2728 7.09L16.2028 7.94L15.3128 8.64L15.4528 9.77ZM10.0028 6.5C7.79277 6.5 6.00277 8.29 6.00277 10.5C6.00277 12.71 7.79277 14.5 10.0028 14.5C12.2128 14.5 14.0028 12.71 14.0028 10.5C14.0028 8.29 12.2128 6.5 10.0028 6.5ZM10.0028 12.5C8.90277 12.5 8.00277 11.6 8.00277 10.5C8.00277 9.4 8.90277 8.5 10.0028 8.5C11.1028 8.5 12.0028 9.4 12.0028 10.5C12.0028 11.6 11.1028 12.5 10.0028 12.5Z" fill="#252525"/>
</svg>
